PERFORMER "Laurent Garnier"
TITLE "Essential Mix (2009-05-23) [TMB]"
FILE "Essential Mix - 2009-05-23 - Laurent Garnier.mp3" MP3
  TRACK 01 AUDIO
    PERFORMER "Essential Mix"
    TITLE "Intro"
    INDEX 01 00:00:00
  TRACK 02 AUDIO
    PERFORMER "Twelve"
    TITLE "Back To Black"
    INDEX 01 01:56:24
  TRACK 03 AUDIO
    PERFORMER "Chymera"
    TITLE "In Vogue"
    INDEX 01 06:03:03
  TRACK 04 AUDIO
    PERFORMER "ID"
    TITLE "ID"
    INDEX 01 11:40:74
  TRACK 05 AUDIO
    PERFORMER "Kapuchon"
    TITLE "And Again"
    INDEX 01 16:03:34
  TRACK 06 AUDIO
    PERFORMER "Jamie Jones"
    TITLE "Summertime"
    INDEX 01 20:29:74
  TRACK 07 AUDIO
    PERFORMER "DJ Hell"
    TITLE "The DJ"
    INDEX 01 26:37:29
  TRACK 08 AUDIO
    PERFORMER "Oculus"
    TITLE "Creator"
    INDEX 01 32:28:04
  TRACK 09 AUDIO
    PERFORMER "Secret Cinema"
    TITLE "Kurzweil Chicago"
    INDEX 01 37:34:12
  TRACK 10 AUDIO
    PERFORMER "Xpansul"
    TITLE "Miss Fortune"
    INDEX 01 42:48:60
  TRACK 11 AUDIO
    PERFORMER "Ame"
    TITLE "Ensor"
    INDEX 01 49:18:74
  TRACK 12 AUDIO
    PERFORMER "Arno Mathieu"
    TITLE "Soil Hard Winter"
    INDEX 01 55:04:04
  TRACK 13 AUDIO
    PERFORMER "Satoshi Fumi"
    TITLE "Change"
    INDEX 01 59:15:34
  TRACK 14 AUDIO
    PERFORMER "Buddy Guy"
    TITLE "One Room Country Shack"
    INDEX 01 63:11:35
  TRACK 15 AUDIO
    PERFORMER "Alan Hawkshaw & Brian Bennett"
    TITLE "Name Of The Game"
    INDEX 01 68:49:23
  TRACK 16 AUDIO
    PERFORMER "Milez Benjiman"
    TITLE "Chop That Wood"
    INDEX 01 73:07:00
  TRACK 17 AUDIO
    PERFORMER "Giallos Flame"
    TITLE "Crime Squad"
    INDEX 01 77:24:13
  TRACK 18 AUDIO
    PERFORMER "DJ Fresh"
    TITLE "The Pink Panther"
    INDEX 01 79:21:39
  TRACK 19 AUDIO
    PERFORMER "Anthony Joseph"
    TITLE "Vero"
    INDEX 01 82:57:43
  TRACK 20 AUDIO
    PERFORMER "Mulatu Astatke"
    TITLE "Bootleg"
    INDEX 01 87:23:51
  TRACK 21 AUDIO
    PERFORMER "Middlewood Sessions"
    TITLE "Fall Back (Remix)"
    INDEX 01 94:04:21
  TRACK 22 AUDIO
    PERFORMER "Guy Gerber & Chaim"
    TITLE "My Space"
    INDEX 01 98:10:00
  TRACK 23 AUDIO
    PERFORMER "Chain Of Command"
    TITLE "Rogue State"
    INDEX 01 102:25:11
  TRACK 24 AUDIO
    PERFORMER "Martyn"
    TITLE "Natural Selection"
    INDEX 01 107:39:09
  TRACK 25 AUDIO
    PERFORMER "Radio Slave"
    TITLE "Bell Clap Dance"
    INDEX 01 111:24:60
  TRACK 26 AUDIO
    PERFORMER "Lulu Rouge"
    TITLE "Melankoli"
    INDEX 01 115:32:45